<svg xmlns="http://www.w3.org/2000/svg" viewBox="0 0 59.736 59.736">
  <defs>
    <style>
      .cls-1 {
        fill: #ff7272;
        opacity: 0.5;
      }

      .cls-2 {
        fill: #370300;
      }

      .cls-3 {
        fill: none;
        stroke: #ff7373;
        stroke-width: 1.195px;
      }

      .cls-4 {
        fill: #ff7373;
      }
    </style>
  </defs>
  <g id="img_element_fire" transform="translate(29.868 29.868)">
    <g id="Group_426" data-name="Group 426" transform="translate(-29.868 -29.868)">
      <circle id="Ellipse_159" data-name="Ellipse 159" class="cls-1" cx="29.868" cy="29.868" r="29.868"/>
      <g id="Ellipse_160" data-name="Ellipse 160" transform="translate(7.168 7.168)">
        <circle id="Ellipse_51" data-name="Ellipse 51" class="cls-2" cx="22.7" cy="22.7" r="22.7"/>
        <circle id="Ellipse_52" data-name="Ellipse 52" class="cls-3" cx="22.102" cy="22.102" r="22.102" transform="translate(0.597 0.597)"/>
      </g>
      <g id="Artwork_28" data-name="Artwork 28" transform="translate(20.31 13.142)">
        <g id="Group_293" data-name="Group 293">
          <path id="Path_953" data-name="Path 953" class="cls-4" d="M26.975,23.767a5.641,5.641,0,0,1-1.667-5.781A8.706,8.706,0,0,0,23.544,11c.978,2.042,1.4,2.1.194,6.677C22.572,22.111,26.975,23.767,26.975,23.767Z" transform="translate(-15.727 -11)"/>
          <path id="Path_954" data-name="Path 954" class="cls-4" d="M30.158,20.156a4.383,4.383,0,0,0,1.992,2.987s-1.168-.836-.575-2.987c.863-3.118-.268-4.673-.268-4.673C31.919,17.245,29.723,18.49,30.158,20.156Z" transform="translate(-14.449 -10.127)"/>
          <path id="Path_955" data-name="Path 955" class="cls-4" d="M35.314,26.611a3.864,3.864,0,0,1-2.207,3.413c1.694-3.041-.686-7.347-2.748-8.456a3.927,3.927,0,0,1-2.186-4.851c-2.21,2.08.421,2.971,1.992,7.449a4.555,4.555,0,0,1-2.32,5.941c1.714-1.853,1.49-4.638-.771-5.412-1.46-.5-5.668-3.106-4.193-5.209A9.068,9.068,0,0,0,24.049,14.2c0,2.336-3.83,3.37-4.041,5.515s2.968,2.987,3.5,4.9-1.553,3.339-3.16,3.907c-1.627.575-3.162,1.155-3.345,4.289-.21,3.5,4.443,3.868,5.745,4.9s1,1.912,1,1.912a1.719,1.719,0,0,1,1.535-.569,11.111,11.111,0,0,0,8.729-1.5C38.3,34.571,35.314,26.611,35.314,26.611ZM25.663,38.484s.268-1.207-1.434-.344a4.516,4.516,0,0,0-1.092-3.676c-1.474-1.434-2.49-3.638-.976-4.136s3.561-.46,3.735-2.3c0,0,.728,3.275-.747,4.6s.287,2.7.287,2.7a1.4,1.4,0,0,1,.4.976v.306s1.792.191,1.665-1.455c-.287-3.735,1.111-5.515,4.136-5.8,0,0-3.179.717-3.619,5.917-.119,1.36.651.956-.287,2.24,0,0,3.5-1.092,4.768-3.561,0,0,.46,5.438-6.836,4.54Z" transform="translate(-17 -10.377)"/>
        </g>
      </g>
    </g>
  </g>
</svg>
