<svg xmlns="http://www.w3.org/2000/svg" viewBox="0 0 72.367 72.367"><defs><style>.a,.d{fill:#cf6cff;}.a{opacity:0.5;}.b{fill:#3a0056;}.c{fill:none;stroke:#cf6cff;stroke-width:1.447px;}</style></defs><g transform="translate(36.184 36.183)"><g transform="translate(-36.184 -36.184)"><circle class="a" cx="36.184" cy="36.184" r="36.184"/><g transform="translate(8.684 8.684)"><path class="b" d="M171.7,144.2a27.5,27.5,0,1,1-27.5,27.5,27.5,27.5,0,0,1,27.5-27.5" transform="translate(-144.202 -144.2)"/><circle class="c" cx="26.776" cy="26.776" r="26.776" transform="translate(0.724 0.724)"/></g><path class="d" d="M389.587,376.362l-1.86,2.441-3.26.155-1.552,2.794.931-3.622,2.38-.362.449-2.365a17.413,17.413,0,0,0-3.864-.429c-7.716,0-13.971,4.958-13.971,11.074a10.357,10.357,0,0,0,5.1,8.553l1.863,5.573,2.509.569,1.37-4.007.8,6.077,2.432.569.2-6.707,1.872,6.6,2.329-1.345.436-5.258,1.064,3.809,3.528-3.57.282-2.985a10.064,10.064,0,0,0,4.159-7.882C396.783,381.88,393.878,378.252,389.587,376.362Zm-14.315,11.581s-4.563.077-2.166-5.8c0,0,3.635-.155,5.8,2.011s2.243,3.635,3.326,3.558a5.058,5.058,0,0,1-2.784,0c-1.238-.464-4.177.232-4.177.232Zm7.97,4.922a10.932,10.932,0,0,0-3.6,2.458s1.931-4.038,3.6-4.828c0,0,2.721,2.194,2.984,3.511a24.449,24.449,0,0,0-2.984-1.141Zm7.108-4.922s-2.939-.7-4.177-.232a5.058,5.058,0,0,1-2.784,0c1.083.077,1.16-1.392,3.326-3.558s5.8-2.011,5.8-2.011c2.4,5.878-2.166,5.8-2.166,5.8Z" transform="translate(-346.628 -352.392)"/></g></g></svg>